# xmcd CD database file
#
# Track frame offsets:
#	150
#	21702
#	41307
#	64297
#	83685
#	105033
#	122684
#	138575
#	157430
#	171568
#	196262
#	216493
#	241271
#
# Disc length: 3596 seconds
#
# Revision: 0
# Processed by: cddbd v1.4PL0 Copyright (c) Steve Scherf et al.
# Submitted via: CDex 1.40Beta9
#
DISCID=bd0e0a0d
DTITLE=Various Artist - telarc blues
DYEAR=2000
DGENRE=Blues
TTITLE0=Bad Blood - Son Seals
TTITLE1=Let It Go - Son Seals
TTITLE2=Bad Luck Child - Son Seals
TTITLE3=Blues Falling..- K.Neal
TTITLE4=Got My Moyo Working - Perkins/Sumlin
TTITLE5=She's Looking Good - L.Johonson
TTITLE6=You Cann't Loose...- The Muddy Waters...
TTITLE7=Saddle My Pony - Tribute to Howlin
TTITLE8=Bring It Home - Song of W.Dixon
TTITLE9=Fanning the Flame - M.Muldaur
TTITLE10=On the Lookout - M.Grebb
TTITLE11=Gates Of Heaven - E.Kirkland
TTITLE12=Broke and Hungry - J.Wells
EXTD=YEAR: 2000 ID3G: 0
EXTT0=
EXTT1=
EXTT2=
EXTT3=
EXTT4=
EXTT5=
EXTT6=
EXTT7=
EXTT8=
EXTT9=
EXTT10=
EXTT11=
EXTT12=
PLAYORDER=
